<svg width="24" height="24" viewBox="0 0 24 24"  xmlns="http://www.w3.org/2000/svg">
<path d="M21 6H3.00005C2.42325 6 1.96603 6.48666 2.00198 7.06233L2.88398 21.1813C2.98294 22.7656 4.29717 24 5.88506 24H18.1151C19.7022 24 21.0162 22.7654 21.1151 21.1813L21.9981 7.06242C22.0341 6.4867 21.5769 6 21 6ZM19.119 21.0566C19.0859 21.5866 18.6459 22 18.115 22H5.88506C5.35322 22 4.9132 21.5867 4.88011 21.0567L4.06448 7.99997H19.9356L19.119 21.0566Z" />
<path d="M23 3H17.721L17.6228 2.70506C17.0833 1.08919 15.5723 0 13.87 0H10.13C8.42775 0 6.91669 1.08919 6.37744 2.70431L6.279 3H0.999984C0.447703 3 0 3.4477 0 3.99998C0 4.55227 0.447703 4.99997 0.999984 4.99997H6.99998H17H23C23.5522 4.99997 24 4.55227 24 3.99998C24 3.4477 23.5523 3 23 3ZM8.42372 3C8.76487 2.39077 9.4132 2.00002 10.13 2.00002H13.87C14.5867 2.00002 15.2348 2.39058 15.5762 3H8.42372Z" />
<path d="M6.99998 20H17C17.5522 20 18 19.5523 18 19C18 18.4478 17.5522 18.0001 17 18.0001H6.99998C6.4477 18 6 18.4477 6 19C6 19.5523 6.4477 20 6.99998 20Z" />
<path d="M6.99998 16H17C17.5522 16 18 15.5523 18 15C18 14.4477 17.5522 14 17 14H6.99998C6.4477 14 6 14.4477 6 15C6 15.5523 6.4477 16 6.99998 16Z" />
</svg>
