<svg width="24" height="24" viewBox="0 0 24 24"  xmlns="http://www.w3.org/2000/svg">
<path d="M9 13C9 11.3427 7.65727 9.99997 6 9.99997C4.34273 9.99997 3 11.3427 3 13C3 14.6572 4.34273 16 6 16C7.65727 16 9 14.6573 9 13ZM5.00002 13C5.00002 12.4473 5.4473 12 6 12C6.5527 12 6.99998 12.4473 6.99998 13C6.99998 13.5527 6.5527 14 6 14C5.4473 14 5.00002 13.5527 5.00002 13Z" />
<path d="M23 6.99998H19.4142L14.9666 2.55239C14.7506 1.10761 13.5052 0 12 0C10.4948 0 9.24938 1.10761 9.03337 2.55244L4.58578 6.99998H0.999984C0.447703 6.99998 0 7.44773 0 8.00002V23C0 23.5523 0.447703 24 0.999984 24H23C23.5522 24 24 23.5523 24 23V8.00002C24 7.44773 23.5523 6.99998 23 6.99998ZM12 2.00002C12.5527 2.00002 13 2.4473 13 3C13 3.5527 12.5527 3.99998 12 3.99998C11.4473 3.99998 11 3.5527 11 3C11 2.4473 11.4473 2.00002 12 2.00002ZM9.60609 4.80811C10.1537 5.53214 11.0219 6 12 6C12.9781 6 13.8463 5.53214 14.3939 4.80811L16.5858 6.99998H7.41422L9.60609 4.80811ZM22 22H2.00002V9H22V22H22Z" />
<path d="M15.7071 12.2928C15.247 11.8328 14.4772 11.9276 14.1425 12.4854L11.8014 16.3872L10.7071 15.2928C10.3166 14.9023 9.68339 14.9023 9.29287 15.2928L5.29289 19.2928C4.90237 19.6833 4.90237 20.3165 5.29289 20.707C5.6834 21.0975 6.31659 21.0975 6.70711 20.707L9.99998 17.4142L12.2929 19.707C12.6834 20.0976 13.3166 20.0976 13.7071 19.707C14.0976 19.3165 14.0976 18.6833 13.7071 18.2928L13.2592 17.8449L15.1986 14.6127L17.2929 16.7071C17.6834 17.0976 18.3166 17.0976 18.7072 16.7071C19.0977 16.3166 19.0977 15.6834 18.7072 15.2929L15.7071 12.2928Z" />
</svg>
