<svg width="24" height="24" viewBox="0 0 24 24" fill="none" xmlns="http://www.w3.org/2000/svg">
<path d="M9.95 18.2925L7.12202 21.1205C5.94959 22.2929 4.05094 22.2929 2.8795 21.1207C1.70783 19.9491 1.70783 18.0502 2.87927 16.8788L8.53622 11.2218C9.70766 10.0504 11.6065 10.0504 12.7779 11.2218C13.1684 11.6124 13.8016 11.6124 14.1921 11.2218C14.5826 10.8313 14.5826 10.1982 14.1921 9.80764C12.2396 7.85513 9.07452 7.85513 7.12202 9.80764L1.46511 15.4646C-0.487395 17.4171 -0.487395 20.5822 1.46511 22.5347C3.41739 24.4883 6.58273 24.4883 8.53627 22.5347L11.3642 19.7067C11.7548 19.3162 11.7548 18.683 11.3642 18.2925C10.9737 17.902 10.3405 17.902 9.95 18.2925Z" fill="black"/>
<path d="M22.5351 8.53499C24.4876 6.58248 24.4876 3.41737 22.5351 1.46486C20.5827 -0.487598 17.4177 -0.487598 15.4642 1.46463L12.071 4.85782C11.6805 5.24834 11.6805 5.88152 12.071 6.27203C12.4615 6.66254 13.0947 6.66254 13.4852 6.27203L16.8782 2.87907C18.0504 1.70758 19.9494 1.70758 21.1209 2.87907C22.2924 4.05051 22.2924 5.94934 21.1209 7.12078L14.899 13.3427C13.7275 14.5142 11.8287 14.5142 10.6573 13.3427C10.2668 12.9522 9.63359 12.9522 9.24308 13.3427C8.85257 13.7332 8.85257 14.3664 9.24308 14.7569C11.1956 16.7094 14.3607 16.7094 16.3132 14.7569L22.5351 8.53499Z" fill="black"/>
<path d="M18.7073 17.2929C18.3168 16.9024 17.6836 16.9024 17.2931 17.2929C16.9026 17.6834 16.9026 18.3166 17.2931 18.7071L20.2921 21.7061C20.6826 22.0966 21.3158 22.0966 21.7063 21.7061C22.0968 21.3156 22.0968 20.6824 21.7063 20.2919L18.7073 17.2929Z" fill="black"/>
<path d="M5.29365 6.70858C5.68416 7.09909 6.31734 7.09909 6.70786 6.70858C7.09837 6.31807 7.09837 5.68489 6.70786 5.29438L3.70587 2.2924C3.31536 1.90188 2.68218 1.90188 2.29166 2.2924C1.90115 2.68291 1.90115 3.31609 2.29166 3.7066L5.29365 6.70858Z" fill="black"/>
<path d="M22.9997 15H19.9997C19.4475 15 18.9998 15.4477 18.9998 16C18.9998 16.5522 19.4475 16.9999 19.9997 16.9999H22.9997C23.552 16.9999 23.9997 16.5522 23.9997 16C23.9997 15.4477 23.552 15 22.9997 15Z" fill="black"/>
<path d="M7.99973 4.99996C8.552 4.99996 8.9997 4.55226 8.9997 3.99998V1.00002C8.9997 0.447698 8.552 0 7.99973 0C7.44745 0 6.99976 0.447698 6.99976 0.999973V3.99994C6.99971 4.55221 7.44745 4.99996 7.99973 4.99996Z" fill="black"/>
<path d="M0.999973 8.99995H3.99994C4.55221 8.99995 4.99991 8.55225 4.99991 7.99997C4.99991 7.4477 4.55221 7 3.99994 7H0.999973C0.447698 7 0 7.4477 0 7.99997C0 8.55225 0.447698 8.99995 0.999973 8.99995Z" fill="black"/>
<path d="M16 19C15.4477 19 15 19.4477 15 20V22.9999C15 23.5522 15.4477 23.9999 16 23.9999C16.5522 23.9999 16.9999 23.5522 16.9999 22.9999V20C17 19.4477 16.5522 19 16 19Z" fill="black"/>
</svg>
