<svg width="26" height="26" viewBox="0 0 26 26"  xmlns="http://www.w3.org/2000/svg">
<mask id="path-1-outside-1" maskUnits="userSpaceOnUse" x="0" y="0" width="26" height="26" >
<rect  width="26" height="26"/>
<path fill-rule="evenodd" clip-rule="evenodd" d="M24.441 4.60432C24.6119 4.62156 24.7705 4.70304 24.8865 4.83318C24.9983 4.9676 25.0303 5.15381 24.9701 5.31939L23.6337 11.0691C23.3354 12.3641 22.2764 13.3263 20.9889 13.472L9.26843 14.7306L9.04569 15.2455C8.88375 15.7008 8.93506 16.2074 9.18487 16.6186C9.43751 17.0349 9.87686 17.2929 10.3541 17.3051H21.1839C21.4914 17.3051 21.7407 17.5613 21.7407 17.8772C21.7407 18.1932 21.4914 18.4494 21.1839 18.4494H10.3542C9.50902 18.4232 8.72954 17.9747 8.26621 17.2479C7.7984 16.5079 7.70515 15.582 8.01565 14.7592L8.29402 14.1013L4.75838 3.14543C4.56053 2.55739 4.02744 2.15796 3.42205 2.14422H1.5568C1.24928 2.14422 1 1.88809 1 1.57211C1 1.25613 1.24928 1 1.5568 1H3.42205C4.50473 1.01177 5.46326 1.7218 5.81629 2.77355L6.3174 4.34687L24.441 4.60432ZM20.8498 12.3278C21.6784 12.2603 22.3672 11.6453 22.548 10.8117L23.745 5.74854L6.67932 5.49109L9.26843 13.5578L20.8498 12.3278ZM8.65594 19.8511C7.27213 19.8511 6.15039 21.0037 6.15039 22.4255C6.15039 23.8474 7.27219 25 8.65594 25C10.0397 25 11.1615 23.8473 11.1615 22.4255C11.1615 21.0037 10.0397 19.8511 8.65594 19.8511ZM8.65594 23.8558C7.88717 23.8558 7.26398 23.2155 7.26398 22.4256C7.26398 21.6357 7.88717 20.9953 8.65594 20.9953C9.42471 20.9953 10.0479 21.6357 10.0479 22.4256C10.0479 23.2155 9.42471 23.8558 8.65594 23.8558ZM19.235 19.8511C17.8512 19.8511 16.7295 21.0037 16.7295 22.4255C16.7295 23.8474 17.8513 25 19.235 25C20.6188 25 21.7406 23.8473 21.7406 22.4255C21.7406 21.0037 20.6188 19.8511 19.235 19.8511ZM19.235 23.8558C18.4663 23.8558 17.8431 23.2155 17.8431 22.4256C17.8431 21.6357 18.4663 20.9953 19.235 20.9953C20.0038 20.9953 20.627 21.6357 20.627 22.4256C20.6271 23.2155 20.0038 23.8558 19.235 23.8558Z"/>
</mask>
<path fill-rule="evenodd" clip-rule="evenodd" d="M24.441 4.60432C24.6119 4.62156 24.7705 4.70304 24.8865 4.83318C24.9983 4.9676 25.0303 5.15381 24.9701 5.31939L23.6337 11.0691C23.3354 12.3641 22.2764 13.3263 20.9889 13.472L9.26843 14.7306L9.04569 15.2455C8.88375 15.7008 8.93506 16.2074 9.18487 16.6186C9.43751 17.0349 9.87686 17.2929 10.3541 17.3051H21.1839C21.4914 17.3051 21.7407 17.5613 21.7407 17.8772C21.7407 18.1932 21.4914 18.4494 21.1839 18.4494H10.3542C9.50902 18.4232 8.72954 17.9747 8.26621 17.2479C7.7984 16.5079 7.70515 15.582 8.01565 14.7592L8.29402 14.1013L4.75838 3.14543C4.56053 2.55739 4.02744 2.15796 3.42205 2.14422H1.5568C1.24928 2.14422 1 1.88809 1 1.57211C1 1.25613 1.24928 1 1.5568 1H3.42205C4.50473 1.01177 5.46326 1.7218 5.81629 2.77355L6.3174 4.34687L24.441 4.60432ZM20.8498 12.3278C21.6784 12.2603 22.3672 11.6453 22.548 10.8117L23.745 5.74854L6.67932 5.49109L9.26843 13.5578L20.8498 12.3278ZM8.65594 19.8511C7.27213 19.8511 6.15039 21.0037 6.15039 22.4255C6.15039 23.8474 7.27219 25 8.65594 25C10.0397 25 11.1615 23.8473 11.1615 22.4255C11.1615 21.0037 10.0397 19.8511 8.65594 19.8511ZM8.65594 23.8558C7.88717 23.8558 7.26398 23.2155 7.26398 22.4256C7.26398 21.6357 7.88717 20.9953 8.65594 20.9953C9.42471 20.9953 10.0479 21.6357 10.0479 22.4256C10.0479 23.2155 9.42471 23.8558 8.65594 23.8558ZM19.235 19.8511C17.8512 19.8511 16.7295 21.0037 16.7295 22.4255C16.7295 23.8474 17.8513 25 19.235 25C20.6188 25 21.7406 23.8473 21.7406 22.4255C21.7406 21.0037 20.6188 19.8511 19.235 19.8511ZM19.235 23.8558C18.4663 23.8558 17.8431 23.2155 17.8431 22.4256C17.8431 21.6357 18.4663 20.9953 19.235 20.9953C20.0038 20.9953 20.627 21.6357 20.627 22.4256C20.6271 23.2155 20.0038 23.8558 19.235 23.8558Z" />
<path d="M24.8865 4.83318L25.0403 4.70518L25.0358 4.70014L24.8865 4.83318ZM24.441 4.60432L24.4611 4.40533L24.4525 4.40446L24.4439 4.40434L24.441 4.60432ZM24.9701 5.31939L24.7821 5.25103L24.778 5.26236L24.7753 5.27411L24.9701 5.31939ZM23.6337 11.0691L23.4389 11.0238L23.4388 11.0242L23.6337 11.0691ZM20.9889 13.472L21.0103 13.6708L21.0114 13.6707L20.9889 13.472ZM9.26843 14.7306L9.24707 14.5318L9.13115 14.5442L9.08487 14.6512L9.26843 14.7306ZM9.04569 15.2455L8.86172 15.1659L8.85725 15.1785L9.04569 15.2455ZM9.18487 16.6186L9.35585 16.5148L9.3558 16.5148L9.18487 16.6186ZM10.3541 17.3051L10.349 17.5051H10.3541V17.3051ZM10.3542 18.4494L10.348 18.6494H10.3542V18.4494ZM8.26621 17.2479L8.09715 17.3548L8.09756 17.3554L8.26621 17.2479ZM8.01565 14.7592L7.83132 14.6812L7.82853 14.6886L8.01565 14.7592ZM8.29402 14.1013L8.47821 14.1793L8.50721 14.1107L8.48436 14.0399L8.29402 14.1013ZM4.75838 3.14543L4.94873 3.084L4.94794 3.08165L4.75838 3.14543ZM3.42205 2.14422L3.42659 1.94422H3.42205V2.14422ZM3.42205 1L3.42423 0.8H3.42205V1ZM5.81629 2.77355L6.00688 2.71285L6.00589 2.70991L5.81629 2.77355ZM6.3174 4.34687L6.12683 4.40757L6.17054 4.5448L6.31456 4.54685L6.3174 4.34687ZM22.548 10.8117L22.3533 10.7657L22.3525 10.7693L22.548 10.8117ZM20.8498 12.3278L20.8335 12.1284L20.8286 12.1289L20.8498 12.3278ZM23.745 5.74854L23.9397 5.79456L23.997 5.55231L23.7481 5.54856L23.745 5.74854ZM6.67932 5.49109L6.68234 5.29111L6.40374 5.28691L6.48889 5.55221L6.67932 5.49109ZM9.26843 13.5578L9.07799 13.6189L9.12773 13.7739L9.28955 13.7567L9.26843 13.5578ZM11.1615 22.4255L10.9615 22.4255V22.4255H11.1615ZM10.0479 22.4256H9.8479V22.4256L10.0479 22.4256ZM20.627 22.4256H20.427V22.4256L20.627 22.4256ZM25.0358 4.70014C24.8871 4.5332 24.6826 4.42768 24.4611 4.40533L24.4209 4.8033C24.5412 4.81544 24.6539 4.87287 24.7371 4.96623L25.0358 4.70014ZM25.158 5.38774C25.2423 5.156 25.198 4.89492 25.0402 4.70526L24.7327 4.96111C24.7986 5.04028 24.8183 5.15163 24.7821 5.25103L25.158 5.38774ZM23.8285 11.1144L25.1649 5.36466L24.7753 5.27411L23.4389 11.0238L23.8285 11.1144ZM21.0114 13.6707C22.386 13.5151 23.5119 12.4888 23.8286 11.114L23.4388 11.0242C23.1589 12.2395 22.1667 13.1374 20.9664 13.2732L21.0114 13.6707ZM9.28978 14.9295L21.0103 13.6708L20.9676 13.2731L9.24707 14.5318L9.28978 14.9295ZM9.22925 15.3249L9.45199 14.81L9.08487 14.6512L8.86213 15.1661L9.22925 15.3249ZM9.3558 16.5148C9.1374 16.1553 9.09224 15.7115 9.23412 15.3125L8.85725 15.1785C8.67526 15.6902 8.73273 16.2595 9.01394 16.7224L9.3558 16.5148ZM10.3593 17.1052C9.95168 17.0947 9.57403 16.8743 9.35585 16.5148L9.0139 16.7224C9.30098 17.1954 9.80204 17.491 10.349 17.5051L10.3593 17.1052ZM21.1839 17.1051H10.3541V17.5051H21.1839V17.1051ZM21.9407 17.8772C21.9407 17.456 21.6069 17.1051 21.1839 17.1051V17.5051C21.3758 17.5051 21.5407 17.6666 21.5407 17.8772H21.9407ZM21.1839 18.6494C21.6069 18.6494 21.9407 18.2985 21.9407 17.8772H21.5407C21.5407 18.0879 21.3758 18.2494 21.1839 18.2494V18.6494ZM10.3542 18.6494H21.1839V18.2494H10.3542V18.6494ZM8.09756 17.3554C8.59561 18.1367 9.43522 18.6211 10.348 18.6493L10.3604 18.2495C9.58282 18.2254 8.86346 17.8127 8.43485 17.1404L8.09756 17.3554ZM7.82853 14.6886C7.49598 15.5698 7.59564 16.5615 8.09715 17.3548L8.43526 17.141C8.00116 16.4544 7.91431 15.5942 8.20277 14.8299L7.82853 14.6886ZM8.10983 14.0234L7.83146 14.6813L8.19984 14.8372L8.47821 14.1793L8.10983 14.0234ZM4.56805 3.20685L8.10369 14.1628L8.48436 14.0399L4.94871 3.08401L4.56805 3.20685ZM3.41751 2.34417C3.93595 2.35594 4.39693 2.69833 4.56882 3.20921L4.94794 3.08165C4.72412 2.41645 4.11894 1.95999 3.42659 1.94427L3.41751 2.34417ZM1.5568 2.34422H3.42205V1.94422H1.5568V2.34422ZM0.8 1.57211C0.8 1.9934 1.13374 2.34422 1.5568 2.34422V1.94422C1.36481 1.94422 1.2 1.78278 1.2 1.57211H0.8ZM1.5568 0.8C1.13374 0.8 0.8 1.15083 0.8 1.57211H1.2C1.2 1.36144 1.36481 1.2 1.5568 1.2V0.8ZM3.42205 0.8H1.5568V1.2H3.42205V0.8ZM6.00589 2.70991C5.62668 1.58015 4.59485 0.81274 3.42423 0.800012L3.41988 1.19999C4.41462 1.2108 5.29984 1.86346 5.62668 2.83719L6.00589 2.70991ZM6.50796 4.28617L6.00685 2.71285L5.62572 2.83425L6.12683 4.40757L6.50796 4.28617ZM24.4439 4.40434L6.32024 4.14689L6.31456 4.54685L24.4382 4.8043L24.4439 4.40434ZM22.3525 10.7693C22.1897 11.52 21.5712 12.0683 20.8335 12.1284L20.866 12.5271C21.7855 12.4522 22.5447 11.7707 22.7434 10.8541L22.3525 10.7693ZM23.5504 5.70252L22.3533 10.7657L22.7426 10.8577L23.9397 5.79456L23.5504 5.70252ZM6.6763 5.69107L23.742 5.94851L23.7481 5.54856L6.68234 5.29111L6.6763 5.69107ZM9.45886 13.4967L6.86975 5.42997L6.48889 5.55221L9.07799 13.6189L9.45886 13.4967ZM20.8286 12.1289L9.2473 13.3589L9.28955 13.7567L20.8709 12.5267L20.8286 12.1289ZM6.35039 22.4255C6.35039 21.109 7.38767 20.0511 8.65594 20.0511V19.6511C7.15659 19.6511 5.95039 20.8984 5.95039 22.4255H6.35039ZM8.65594 24.8C7.38772 24.8 6.35039 23.7421 6.35039 22.4255H5.95039C5.95039 23.9527 7.15665 25.2 8.65594 25.2V24.8ZM10.9615 22.4255C10.9615 23.742 9.9242 24.8 8.65594 24.8V25.2C10.1553 25.2 11.3615 23.9527 11.3615 22.4255H10.9615ZM8.65594 20.0511C9.92421 20.0511 10.9615 21.109 10.9615 22.4255L11.3615 22.4255C11.3615 20.8984 10.1553 19.6511 8.65594 19.6511V20.0511ZM7.06398 22.4256C7.06398 23.3208 7.77163 24.0558 8.65594 24.0558V23.6558C8.00271 23.6558 7.46398 23.1102 7.46398 22.4256H7.06398ZM8.65594 20.7953C7.77163 20.7953 7.06398 21.5304 7.06398 22.4256H7.46398C7.46398 21.741 8.00271 21.1953 8.65594 21.1953V20.7953ZM10.2479 22.4256C10.2479 21.5304 9.54025 20.7953 8.65594 20.7953V21.1953C9.30917 21.1953 9.8479 21.741 9.8479 22.4256H10.2479ZM8.65594 24.0558C9.54023 24.0558 10.248 23.3208 10.2479 22.4256L9.8479 22.4256C9.84794 23.1102 9.30918 23.6558 8.65594 23.6558V24.0558ZM16.9295 22.4255C16.9295 21.109 17.9668 20.0511 19.235 20.0511V19.6511C17.7357 19.6511 16.5295 20.8984 16.5295 22.4255H16.9295ZM19.235 24.8C17.9668 24.8 16.9295 23.7421 16.9295 22.4255H16.5295C16.5295 23.9527 17.7358 25.2 19.235 25.2V24.8ZM21.5406 22.4255C21.5406 23.742 20.5033 24.8 19.235 24.8V25.2C20.7343 25.2 21.9406 23.9527 21.9406 22.4255H21.5406ZM19.235 20.0511C20.5033 20.0511 21.5406 21.109 21.5406 22.4255H21.9406C21.9406 20.8984 20.7344 19.6511 19.235 19.6511V20.0511ZM17.6431 22.4256C17.6431 23.3208 18.3507 24.0558 19.235 24.0558V23.6558C18.5818 23.6558 18.0431 23.1102 18.0431 22.4256H17.6431ZM19.235 20.7953C18.3507 20.7953 17.6431 21.5304 17.6431 22.4256H18.0431C18.0431 21.741 18.5818 21.1953 19.235 21.1953V20.7953ZM20.827 22.4256C20.827 21.5304 20.1193 20.7953 19.235 20.7953V21.1953C19.8883 21.1953 20.427 21.741 20.427 22.4256H20.827ZM19.235 24.0558C20.1193 24.0558 20.8271 23.3208 20.827 22.4256L20.427 22.4256C20.427 23.1102 19.8883 23.6558 19.235 23.6558V24.0558Z"  mask="url(#path-1-outside-1)"/>
</svg>
