<svg width="34" height="34" viewBox="0 0 34 34"  xmlns="http://www.w3.org/2000/svg">
<path d="M25.4853 24.0712L18.4142 17L25.4853 9.92893C25.8758 9.53841 25.8758 8.90526 25.4853 8.51473C25.0948 8.12421 24.4616 8.12421 24.0711 8.51473L17 15.5858L9.92893 8.51469C9.53837 8.12419 8.90522 8.12419 8.5147 8.51472C8.12418 8.90524 8.12418 9.53839 8.5147 9.92891L15.5858 17L8.51472 24.0711C8.1242 24.4616 8.1242 25.0947 8.51472 25.4853C8.90524 25.8758 9.53839 25.8758 9.92892 25.4853L17 18.4142L24.0711 25.4853C24.4616 25.8758 25.0947 25.8758 25.4853 25.4853C25.8758 25.0948 25.8759 24.4617 25.4853 24.0712Z" />
</svg>
