<svg width="24" height="22" viewBox="0 0 24 22"  xmlns="http://www.w3.org/2000/svg">
<path d="M14.2929 17.2929L13 18.5858V13C13 12.4478 12.5523 12.0001 12 12.0001C11.4477 12.0001 11 12.4478 11 13V18.5858L9.70711 17.2929C9.31659 16.9024 8.6834 16.9024 8.29289 17.2929C7.90237 17.6834 7.90237 18.3166 8.29289 18.7071L11.2929 21.7071C11.2931 21.7073 11.2933 21.7074 11.2934 21.7076C11.3166 21.7307 11.3408 21.7526 11.3662 21.7734C11.3777 21.7829 11.3899 21.7911 11.4018 21.8C11.416 21.8107 11.4299 21.8217 11.4447 21.8316C11.459 21.8411 11.4737 21.8493 11.4883 21.8581C11.5017 21.8661 11.5148 21.8745 11.5286 21.8819C11.5435 21.8898 11.5588 21.8965 11.5739 21.9037C11.5884 21.9105 11.6025 21.9177 11.6173 21.9239C11.632 21.93 11.6471 21.9349 11.662 21.9402C11.6778 21.946 11.6935 21.952 11.7097 21.9569C11.7246 21.9614 11.7398 21.9647 11.7549 21.9685C11.7714 21.9727 11.7877 21.9774 11.8046 21.9807C11.8221 21.9842 11.8397 21.9862 11.8572 21.9887C11.8719 21.9908 11.8864 21.9936 11.9013 21.9951C11.9338 21.9983 11.9664 22 11.999 22C11.9993 22 11.9997 22 12 22C12.0003 22 12.0007 22 12.001 22C12.0336 22 12.0662 21.9983 12.0987 21.9951C12.1136 21.9936 12.1281 21.9908 12.1428 21.9887C12.1604 21.9862 12.1779 21.9842 12.1954 21.9807C12.2122 21.9774 12.2286 21.9727 12.2451 21.9685C12.2602 21.9647 12.2753 21.9614 12.2903 21.9569C12.3065 21.952 12.3222 21.946 12.338 21.9402C12.3529 21.9349 12.368 21.93 12.3827 21.9239C12.3974 21.9177 12.4117 21.9106 12.426 21.9037C12.4412 21.8965 12.4565 21.8898 12.4714 21.8819C12.4852 21.8745 12.4983 21.8661 12.5117 21.8581C12.5263 21.8493 12.541 21.8411 12.5553 21.8316C12.57 21.8217 12.584 21.8107 12.5982 21.8C12.6101 21.7911 12.6223 21.7829 12.6338 21.7734C12.6592 21.7526 12.6835 21.7307 12.7066 21.7076C12.7068 21.7074 12.707 21.7073 12.7071 21.7071L15.7071 18.7071C16.0976 18.3166 16.0976 17.6834 15.7071 17.2929C15.3166 16.9024 14.6834 16.9024 14.2929 17.2929Z" />
<path d="M20.9462 7.22328C20.4807 3.54336 17.0896 7.62939e-05 13.549 7.62939e-05C11.4707 7.62939e-05 9.43462 1.01314 8.07291 2.59915C8.06142 2.59498 8.04966 2.59147 8.03813 2.58739C7.99205 2.57103 7.94588 2.55509 7.89919 2.54037C7.87936 2.53414 7.8592 2.52875 7.83928 2.52284C7.79803 2.51056 7.75673 2.49856 7.71511 2.48759C7.69514 2.48234 7.67498 2.4777 7.65492 2.47278C7.61198 2.46219 7.56895 2.45211 7.52559 2.44292C7.50703 2.43903 7.48842 2.43542 7.46977 2.43176C7.42317 2.42258 7.37639 2.41423 7.32938 2.40669C7.31362 2.40415 7.29792 2.40167 7.28213 2.39937C7.22911 2.39154 7.17591 2.38484 7.12247 2.37908C7.11225 2.378 7.10208 2.37673 7.09181 2.3757C6.95902 2.36248 6.82505 2.35503 6.69005 2.35503C6.41189 2.35503 6.14048 2.38367 5.87813 2.4373C5.87414 2.43809 5.87025 2.43912 5.86627 2.43992C5.8057 2.45248 5.74566 2.46626 5.68612 2.4815C5.67675 2.48389 5.66756 2.4867 5.65823 2.48919C5.60433 2.50344 5.5507 2.51839 5.49769 2.53479C5.48489 2.53873 5.47233 2.54319 5.45958 2.54726C5.41041 2.56301 5.36147 2.57928 5.31314 2.59681C5.298 2.6023 5.28314 2.60829 5.26809 2.61397C5.22263 2.63112 5.17734 2.64865 5.13267 2.66736C5.11594 2.67434 5.09948 2.68189 5.08284 2.68911C5.04042 2.70758 4.99823 2.72633 4.95656 2.7462C4.9387 2.75469 4.92117 2.76369 4.90345 2.77245C4.86366 2.79214 4.82405 2.81215 4.785 2.83311C4.76648 2.84305 4.74825 2.8534 4.72992 2.86362C4.69237 2.88453 4.65506 2.90576 4.61822 2.92784C4.59933 2.93914 4.58077 2.95086 4.56206 2.96248C4.52653 2.98456 4.49128 3.00701 4.4565 3.03017C4.43747 3.04283 4.41872 3.05581 4.39992 3.0688C4.36631 3.09205 4.33294 3.11558 4.30008 3.13976C4.28114 3.15373 4.26244 3.16794 4.24373 3.18223C4.21181 3.20661 4.18022 3.23131 4.14909 3.25662C4.13044 3.27176 4.11202 3.28709 4.09369 3.30256C4.06341 3.32806 4.03345 3.35394 4.00392 3.38033C3.98569 3.39659 3.96764 3.41305 3.94973 3.42964C3.92105 3.45622 3.89273 3.48322 3.8648 3.51059C3.84708 3.52798 3.8295 3.54547 3.81211 3.56319C3.78492 3.59089 3.7582 3.61897 3.73181 3.64742C3.71475 3.66579 3.69783 3.68422 3.68114 3.70292C3.65541 3.7317 3.63019 3.76095 3.6053 3.79044C3.58903 3.8097 3.57286 3.82901 3.55692 3.84856C3.53259 3.87851 3.50888 3.90894 3.48539 3.93959C3.47006 3.95961 3.45469 3.97967 3.43973 3.99997C3.41681 4.03109 3.39455 4.06273 3.37247 4.09456C3.35812 4.11523 3.34373 4.1359 3.32977 4.15686C3.30816 4.1893 3.28734 4.2222 3.26667 4.25529C3.25345 4.27644 3.24009 4.29753 3.22725 4.31895C3.20695 4.3528 3.18755 4.38715 3.16823 4.42161C3.15623 4.44308 3.144 4.46436 3.13237 4.48606C3.11339 4.52145 3.09534 4.5574 3.07739 4.5934C3.0667 4.61487 3.05573 4.6362 3.04538 4.6579C3.0277 4.69508 3.01102 4.73276 2.99447 4.77055C2.98514 4.79183 2.97544 4.81292 2.96648 4.83439C2.95003 4.87372 2.93475 4.91356 2.91952 4.9535C2.91169 4.97403 2.90344 4.99437 2.89594 5.01505C2.8807 5.05705 2.86673 5.09965 2.85286 5.14231C2.84663 5.16153 2.83987 5.18051 2.83392 5.19987C2.81986 5.24553 2.80716 5.29179 2.79464 5.33815C2.79009 5.35498 2.78503 5.37153 2.78072 5.3884C2.76764 5.43964 2.75602 5.49148 2.74491 5.54347C2.74223 5.55589 2.73909 5.56812 2.73656 5.58055C2.72414 5.64153 2.71327 5.70303 2.70361 5.76495C2.70305 5.7687 2.70225 5.77236 2.70169 5.77606C2.68134 5.90928 2.66728 6.04456 2.6603 6.18172C1.07452 7.20176 0 9.08347 0 11C0 13.3992 1.52995 16.0218 3.60323 16.918L3.79312 17H6C6.55228 17 6.99998 16.5523 6.99998 16.0001C6.99998 15.4478 6.55228 15.0001 6 15.0001H4.22573C3.00239 14.3546 2.00002 12.567 2.00002 11C2.00002 9.63861 2.88844 8.24525 4.08712 7.67084L4.65502 7.39873V6.76901C4.65502 6.75265 4.65595 6.72889 4.65825 6.68881C4.6612 6.63898 4.6612 6.63898 4.66233 6.61986L4.66266 6.51031C4.66013 6.46648 4.66012 6.46648 4.65788 6.43461C4.65558 5.50784 5.22872 4.7434 6.02653 4.46661C6.23437 4.39498 6.45717 4.35551 6.6893 4.35551C7.00355 4.35551 7.30111 4.42681 7.5668 4.55389C7.57261 4.5567 7.57838 4.55965 7.58419 4.56251C7.60411 4.57226 7.6238 4.58239 7.64334 4.59279C7.65352 4.59823 7.66364 4.60362 7.67372 4.60925C7.68848 4.61745 7.70306 4.62594 7.71759 4.63447C7.74422 4.65012 7.77056 4.66634 7.79653 4.68326C7.80267 4.68725 7.80895 4.69109 7.81505 4.69512L7.83375 4.70755C8.37131 5.07364 8.72437 5.69028 8.72437 6.38951C8.72437 6.94179 9.17208 7.3895 9.72436 7.3895C10.2766 7.3895 10.7243 6.94179 10.7243 6.38951C10.7243 5.37636 10.35 4.45128 9.73308 3.74281C10.723 2.67772 12.1428 2.00005 13.549 2.00005C15.8552 2.00005 18.2781 4.39639 18.8661 6.93795C18.5885 6.94287 18.3097 6.96176 18.0349 6.9994C17.9937 7.00517 17.9937 7.00517 17.9523 7.01131C17.4062 7.09405 17.0307 7.60381 17.1134 8.14986C17.1961 8.6959 17.7059 9.07147 18.252 8.98873C18.279 8.9847 18.279 8.9847 18.3063 8.9809C18.724 8.92372 19.1905 8.92559 19.6275 8.96455C19.7203 8.9728 19.7896 8.98072 19.8309 8.98615C21.2002 9.25189 22 10.3596 22 12.0001C22 13.4596 21.1325 14.6549 19.8757 15.0001H18C17.4477 15.0001 17 15.4478 17 16.0001C17 16.5523 17.4477 17 18 17H20.1153L20.2275 16.9738C22.4673 16.4504 24 14.4069 24 12C24 9.72617 22.8687 7.91412 20.9462 7.22328Z" />
</svg>
