<svg width="24" height="12" viewBox="0 0 24 12"  xmlns="http://www.w3.org/2000/svg">
<path d="M5.76004 0C2.57927 0 0 2.68672 0 6C0 9.31328 2.57927 12 5.76004 12C8.94081 12 11.5201 9.31328 11.5201 6C11.5201 2.68672 8.94081 0 5.76004 0ZM5.76004 10C3.63968 10 1.92001 8.20874 1.92001 6C1.92001 3.79126 3.63964 2 5.76004 2C7.88045 2 9.60007 3.79131 9.60007 6C9.60007 8.20869 7.88045 10 5.76004 10Z" />
<path d="M18.2395 0C15.0588 0 12.4795 2.68672 12.4795 6C12.4795 9.31328 15.0588 12 18.2395 12C21.4203 12 23.9996 9.31328 23.9996 6C23.9996 2.68672 21.4203 0 18.2395 0ZM18.2395 10C16.1192 10 14.3995 8.20874 14.3995 6C14.3995 3.79126 16.1191 2 18.2395 2C20.3599 2 22.0796 3.79126 22.0796 6C22.0796 8.20874 20.3599 10 18.2395 10Z" />
</svg>
