<svg width="26" height="26" viewBox="0 0 26 26"  xmlns="http://www.w3.org/2000/svg">
<path fill-rule="evenodd" clip-rule="evenodd" d="M25.1631 5.37541C25.2415 5.14678 25.196 4.89155 25.041 4.70525L25.0366 4.70013C24.8878 4.53319 24.6833 4.42767 24.4619 4.40532L24.4533 4.40445L6.46503 4.14892L6.00766 2.71283L6.00667 2.7099C5.62746 1.58014 4.59563 0.812716 3.42501 0.799988H1.55758C1.13452 0.799988 0.800781 1.15081 0.800781 1.5721C0.800781 1.99338 1.13452 2.34421 1.55758 2.34421H3.42048C3.93764 2.35688 4.39727 2.69852 4.56922 3.20806L8.08161 14.0919L7.8321 14.6812L7.82931 14.6886C7.49676 15.5697 7.59683 16.5621 8.09834 17.3554C8.5964 18.1367 9.436 18.6211 10.3488 18.6493H21.1846C21.6077 18.6493 21.9414 18.2985 21.9414 17.8772C21.9414 17.4559 21.6077 17.1051 21.1846 17.1051H10.3576C9.95092 17.0938 9.57432 16.8735 9.35658 16.5147C9.13929 16.1571 9.09348 15.716 9.23276 15.3186L9.40648 14.917L21.0111 13.6708L21.0122 13.6707C22.3868 13.5151 23.5127 12.4888 23.8294 11.114L25.1631 5.37541ZM10.3549 17.3051C10.3549 17.3051 10.355 17.3051 10.3549 17.3051V17.3051ZM23.4939 5.94475L22.3541 10.7657L22.3533 10.7693C22.1905 11.52 21.572 12.0683 20.8343 12.1284L9.40991 13.3417L6.95569 5.69526L23.4939 5.94475Z" />
<path fill-rule="evenodd" clip-rule="evenodd" d="M8.65672 19.651C7.15737 19.651 5.95117 20.8984 5.95117 22.4255C5.95117 23.9527 7.15743 25.2 8.65672 25.2C10.1561 25.2 11.3623 23.9526 11.3623 22.4255C11.3623 20.8984 10.1561 19.651 8.65672 19.651ZM8.65672 23.6558C8.00349 23.6558 7.46476 23.1102 7.46476 22.4256C7.46476 21.741 8.00349 21.1953 8.65672 21.1953C9.30995 21.1953 9.84868 21.741 9.84868 22.4256C9.84872 23.1102 9.30996 23.6558 8.65672 23.6558ZM8.65672 19.851C8.65665 19.851 8.65679 19.851 8.65672 19.851V19.851ZM8.65672 23.8558C8.65678 23.8558 8.65665 23.8558 8.65672 23.8558V23.8558Z" />
<path fill-rule="evenodd" clip-rule="evenodd" d="M19.2358 19.651C17.7365 19.651 16.5303 20.8984 16.5303 22.4255C16.5303 23.9527 17.7365 25.2 19.2358 25.2C20.7351 25.2 21.9414 23.9526 21.9414 22.4255C21.9414 20.8984 20.7352 19.651 19.2358 19.651ZM19.2358 23.6558C18.5826 23.6558 18.0439 23.1102 18.0439 22.4256C18.0439 21.741 18.5826 21.1953 19.2358 21.1953C19.8891 21.1953 20.4278 21.741 20.4278 22.4256C20.4278 23.1102 19.8891 23.6558 19.2358 23.6558ZM19.2358 19.851C19.2358 19.851 19.2359 19.851 19.2358 19.851V19.851ZM19.236 23.8558C19.2361 23.8558 19.236 23.8558 19.236 23.8558V23.8558Z" />
</svg>
