<svg width="24" height="24" viewBox="0 0 24 24"  xmlns="http://www.w3.org/2000/svg">
<path d="M3.99998 8.00002C5.86397 8.00002 7.42997 6.72534 7.87397 5.00002H23C23.5522 5.00002 24 4.55231 24 4.00003C24 3.4477 23.5523 3 23 3H7.87402C7.43002 1.27467 5.86402 0 4.00003 0C1.79072 0 0 1.79072 0 3.99998C0 6.20925 1.79072 8.00002 3.99998 8.00002ZM3.99998 2.00002C5.10469 2.00002 6 2.89528 6 4.00003C6 5.10478 5.10473 6 3.99998 6C2.89523 6 1.99997 5.10473 1.99997 3.99998C1.99997 2.89523 2.89528 2.00002 3.99998 2.00002Z" />
<path d="M20 16C18.136 16 16.57 17.2747 16.126 19H0.999984C0.447703 19 0 19.4477 0 20C0 20.5523 0.447703 21 0.999984 21H16.126C16.57 22.7253 18.136 24 20 24C22.2093 24 24 22.2093 24 20C24 17.7908 22.2093 16 20 16ZM20 22C18.8953 22 18 21.1047 18 20C18 18.8952 18.8953 18 20 18C21.1048 18 22 18.8953 22 20C22 21.1048 21.1047 22 20 22Z" />
<path d="M23 11H15.874C15.43 9.27467 13.864 8 12 8C10.136 8 8.57001 9.27467 8.12601 11H0.999984C0.447703 11 0 11.4477 0 12C0 12.5523 0.447703 13 0.999984 13H8.12597C8.56997 14.7253 10.136 16 12 16C13.8639 16 15.4299 14.7253 15.8739 13H22.9999C23.5522 13 23.9999 12.5523 23.9999 12C23.9999 11.4477 23.5523 11 23 11ZM12 14C10.8953 14 9.99998 13.1047 9.99998 12C9.99998 10.8952 10.8952 9.99997 12 9.99997C13.1047 9.99997 14 10.8952 14 12C14 13.1047 13.1047 14 12 14Z" />
</svg>
