<svg width="24" height="24" viewBox="0 0 24 24"  xmlns="http://www.w3.org/2000/svg">
<g clip-path="url(#clip0)">
<path d="M22.7679 7.18808C24.4107 5.54535 24.4107 2.88349 22.7679 1.24076C21.1268 -0.400382 18.4685 -0.401834 16.8254 1.23621C16.8239 1.23767 16.8223 1.23884 16.8209 1.24029L3.32417 14.7219C3.30318 14.7411 3.28308 14.7613 3.26383 14.7822L1.7103 16.3339C1.5793 16.4648 1.48719 16.6295 1.44432 16.8096L0.0279785 22.7597C-0.144438 23.4841 0.50737 24.136 1.23175 23.9635L7.18184 22.5472C7.36162 22.5044 7.52602 22.4126 7.65674 22.282L19.6827 10.2696C19.6832 10.269 19.6839 10.2685 19.6845 10.268C19.6851 10.2674 19.6855 10.2667 19.6861 10.2662L22.7658 7.18996C22.7665 7.1893 22.7673 7.18874 22.7679 7.18808ZM21.3544 2.65429C21.9619 3.26177 22.1407 4.1344 21.892 4.89856L19.1102 2.11675C19.8743 1.86801 20.7469 2.04676 21.3544 2.65429ZM9.14725 16.5004C9.14668 16.5002 9.14617 16.5001 9.14561 16.4999C9.13235 16.4952 9.11895 16.4909 9.10541 16.4868C9.10166 16.4857 9.09786 16.4845 9.09407 16.4835C9.08573 16.4811 9.07739 16.4786 9.06896 16.4764C9.06643 16.4758 9.0638 16.4752 9.06127 16.4746C9.05462 16.4729 9.04787 16.4713 9.04117 16.4697C9.03541 16.4684 9.02965 16.467 9.02384 16.4658C9.02018 16.465 9.01653 16.4643 9.01292 16.4636C9.00514 16.462 8.99732 16.4606 8.9895 16.4592C8.98706 16.4588 8.98462 16.4583 8.98219 16.4579C8.9805 16.4576 8.97886 16.4572 8.97713 16.4569C8.97268 16.4562 8.96818 16.4556 8.96368 16.4549C8.95675 16.4539 8.94972 16.453 8.94274 16.4521C8.93309 16.4508 8.92339 16.4496 8.91369 16.4487C8.9076 16.4481 8.90146 16.4476 8.89532 16.4472C8.88469 16.4463 8.874 16.4456 8.86328 16.445C8.85775 16.4448 8.85222 16.4447 8.84669 16.4445C8.83544 16.4442 8.82415 16.4439 8.81286 16.444C8.80747 16.444 8.80209 16.4441 8.79665 16.4443C8.78527 16.4445 8.77393 16.4448 8.7625 16.4454C8.75692 16.4457 8.75135 16.4461 8.74572 16.4465C8.73396 16.4473 8.7222 16.4483 8.71054 16.4495C8.70862 16.4497 8.70674 16.4498 8.70482 16.45L7.28689 16.6073L7.52888 15.3693C7.53759 15.3251 7.54317 15.28 7.54584 15.2342C7.55024 15.1596 7.54635 15.086 7.53459 15.0144C7.53436 15.013 7.53403 15.0116 7.5338 15.0101C7.53141 14.9959 7.52878 14.9818 7.52579 14.9677C7.52349 14.9569 7.52082 14.9462 7.5182 14.9356C7.51712 14.9313 7.51618 14.9269 7.51506 14.9226C7.41306 14.5309 7.08359 14.2419 6.68933 14.1859L14.4434 6.44051L17.5637 9.56077L9.8066 17.3092C9.75665 16.9386 9.50107 16.6244 9.14725 16.5004ZM6.44406 20.668L2.34876 21.6428L3.32342 17.5481L4.45889 16.4139L5.3064 16.3195L5.01999 17.7848C5.01521 17.8071 5.01132 17.8297 5.00809 17.8525C5.00799 17.8531 5.0079 17.8538 5.00781 17.8545C5.00565 17.8698 5.00382 17.8851 5.00237 17.9006C5.00209 17.9037 5.00186 17.9067 5.00162 17.9096C5.00054 17.9223 4.99965 17.9349 4.99909 17.9476C4.99881 17.9537 4.99867 17.9598 4.99848 17.9659C4.99825 17.9753 4.99801 17.9847 4.99801 17.9941C4.99801 18.0035 4.9982 18.013 4.99848 18.0224C4.99867 18.0285 4.99881 18.0345 4.99909 18.0406C4.99965 18.0533 5.00054 18.0659 5.00162 18.0786C5.0019 18.0816 5.00209 18.0846 5.00237 18.0876C5.00382 18.1031 5.00565 18.1185 5.00781 18.1338C5.0079 18.1344 5.00799 18.1351 5.00809 18.1358C5.01516 18.1853 5.02589 18.2338 5.04013 18.2811C5.04065 18.2829 5.04112 18.2846 5.04163 18.2863C5.04519 18.298 5.04908 18.3095 5.05307 18.3209C5.05475 18.3258 5.05635 18.3309 5.05813 18.3358C5.06056 18.3425 5.06323 18.349 5.06581 18.3556C5.11533 18.4837 5.18959 18.5973 5.28199 18.6918C5.28494 18.6948 5.28775 18.698 5.2907 18.701C5.29342 18.7037 5.29628 18.7062 5.29899 18.7089C5.39368 18.8017 5.50758 18.8762 5.63595 18.9258C5.64256 18.9284 5.64917 18.9311 5.65582 18.9335C5.66069 18.9353 5.66571 18.9369 5.67062 18.9386C5.6821 18.9426 5.69363 18.9464 5.7053 18.95C5.70698 18.9506 5.70872 18.951 5.7104 18.9515C5.75772 18.9657 5.80631 18.9765 5.85583 18.9835C5.85649 18.9836 5.85714 18.9837 5.8578 18.9838C5.87312 18.986 5.88849 18.9878 5.904 18.9893C5.90704 18.9895 5.91004 18.9898 5.91304 18.99C5.92564 18.9911 5.93829 18.992 5.95104 18.9925C5.95713 18.9928 5.96317 18.993 5.96926 18.9932C5.97868 18.9934 5.98805 18.9936 5.99751 18.9936C6.00693 18.9936 6.01635 18.9934 6.02576 18.9932C6.03186 18.993 6.0379 18.9928 6.04399 18.9925C6.05669 18.992 6.06934 18.9911 6.08199 18.99C6.08503 18.9897 6.08803 18.9895 6.09103 18.9893C6.10649 18.9878 6.12191 18.986 6.13723 18.9838C6.13788 18.9837 6.13854 18.9836 6.13919 18.9835C6.16196 18.9803 6.18455 18.9764 6.20689 18.9716L7.67215 18.6852L7.57746 19.5359L6.44406 20.668ZM18.9781 8.14799L15.8578 5.02773L17.5269 3.36054L20.6472 6.4808L18.9781 8.14799Z" />
<path d="M14.7004 9.29122C14.3101 8.90089 13.6772 8.90089 13.2869 9.29122L9.28884 13.2893C8.89851 13.6796 8.89851 14.3125 9.28884 14.7028C9.67916 15.0931 10.312 15.0931 10.7024 14.7028L14.7004 10.7048C15.0908 10.3144 15.0908 9.68155 14.7004 9.29122Z" />
</g>
<defs>
<clipPath id="clip0">
<rect width="24" height="24" />
</clipPath>
</defs>
</svg>
