<svg width="24" height="24" viewBox="0 0 24 24"  xmlns="http://www.w3.org/2000/svg">
<path d="M12.8138 15.9924C12.4068 15.6344 11.7447 15.6883 11.3867 16.0954L7.61059 20.3521V3.33987C7.61059 2.78081 7.1496 2.31982 6.59054 2.31982C6.03148 2.31982 5.57049 2.78081 5.57049 3.33987V20.3521L1.79436 16.0954C1.38732 15.6883 0.774308 15.6344 0.36727 15.9924C-0.0397681 16.3994 -0.093713 17.0124 0.264284 17.4195L5.8255 23.6427C6.24235 24.1577 6.97796 24.0792 7.30654 23.6427L12.9168 17.4195C13.2748 17.0173 13.2258 16.3504 12.8138 15.9924Z" />
<path d="M23.7349 6.60636L18.2227 0.383086C17.7323 -0.112226 17.1193 -0.14165 16.6927 0.383086L11.0824 6.60636C10.7244 7.01339 10.7783 7.67544 11.1854 8.03344C11.8131 8.53366 12.4457 8.19037 12.6125 7.93046L16.3886 3.67372V20.6369C16.3886 21.196 16.8496 21.657 17.4087 21.657C17.9677 21.657 18.4287 21.2499 18.4287 20.686V3.67862L22.2048 7.93536C22.6119 8.3424 23.2249 8.39634 23.6319 8.03835C24.039 7.6264 24.0929 7.01339 23.7349 6.60636Z" />
</svg>
