<svg width="25" height="24" viewBox="0 0 25 24"  xmlns="http://www.w3.org/2000/svg">
<path d="M21.446 7.22312C20.9805 3.54324 17.5895 0 14.0489 0C11.9706 0 9.93456 1.01305 8.57286 2.59905C8.56137 2.59488 8.54961 2.59136 8.53808 2.58728C8.492 2.57092 8.44583 2.55499 8.39914 2.54027C8.37931 2.53403 8.35916 2.52864 8.33924 2.52274C8.29799 2.51046 8.25669 2.49846 8.21507 2.48749C8.1951 2.48224 8.17494 2.4776 8.15488 2.47267C8.11194 2.46208 8.06891 2.452 8.02555 2.44282C8.00699 2.43892 7.98838 2.43532 7.96973 2.43166C7.92313 2.42247 7.87635 2.41413 7.82934 2.40658C7.81359 2.40405 7.79788 2.40157 7.78209 2.39927C7.72907 2.39144 7.67587 2.38474 7.62243 2.37897C7.61221 2.37789 7.60204 2.37663 7.59178 2.3756C7.45898 2.36238 7.32501 2.35493 7.19002 2.35493C6.91186 2.35493 6.64046 2.38357 6.3781 2.43719C6.37412 2.43799 6.37023 2.43902 6.36624 2.43982C6.30568 2.45238 6.24564 2.46616 6.18611 2.48139C6.17673 2.48378 6.16754 2.4866 6.15822 2.48908C6.10431 2.50333 6.05069 2.51828 5.99767 2.53469C5.98487 2.53863 5.97231 2.54308 5.95956 2.54716C5.91039 2.56291 5.86145 2.57917 5.81313 2.5967C5.79799 2.60219 5.78313 2.60819 5.76808 2.61386C5.72261 2.63102 5.67733 2.64855 5.63261 2.66725C5.61592 2.67423 5.59947 2.68173 5.58288 2.68895C5.54041 2.70742 5.49818 2.72622 5.45646 2.74609C5.43865 2.75458 5.42116 2.76353 5.40349 2.77225C5.36365 2.79194 5.32404 2.812 5.28494 2.83295C5.26643 2.84289 5.24819 2.85325 5.22987 2.86347C5.19232 2.88437 5.15501 2.90561 5.11817 2.92768C5.09927 2.93898 5.08071 2.9507 5.06201 2.96232C5.02648 2.9844 4.99123 3.00686 4.95645 3.03001C4.93742 3.04267 4.91867 3.05565 4.89987 3.06864C4.86626 3.09189 4.83289 3.11542 4.80003 3.1396C4.78109 3.15357 4.76239 3.16778 4.74369 3.18207C4.71176 3.20645 4.68017 3.23115 4.64905 3.25646C4.63039 3.2716 4.61197 3.28693 4.59364 3.3024C4.56336 3.3279 4.53341 3.35377 4.50388 3.38016C4.48564 3.39643 4.46759 3.41288 4.44969 3.42948C4.421 3.45605 4.39269 3.48305 4.36475 3.51043C4.34703 3.52782 4.32946 3.5453 4.31207 3.56302C4.28488 3.59072 4.25811 3.6188 4.23172 3.64725C4.21471 3.66558 4.19778 3.684 4.1811 3.70266C4.15536 3.73149 4.1301 3.76074 4.10521 3.79027C4.08899 3.80953 4.07277 3.8288 4.05688 3.84835C4.03255 3.8783 4.00879 3.90872 3.98535 3.93938C3.97002 3.95939 3.95469 3.97941 3.93974 3.9997C3.91677 4.03087 3.89446 4.06256 3.87238 4.09439C3.85809 4.11506 3.8437 4.13564 3.82977 4.15659C3.80816 4.18903 3.78731 4.22203 3.76659 4.25512C3.75337 4.27626 3.74006 4.29731 3.72721 4.31873C3.70692 4.35257 3.68751 4.38693 3.6682 4.42139C3.6562 4.44285 3.64396 4.46414 3.63234 4.48584C3.61335 4.52123 3.59531 4.55718 3.57735 4.59318C3.56667 4.61465 3.5557 4.63598 3.54534 4.65768C3.52767 4.69485 3.51098 4.73254 3.49443 4.77032C3.48511 4.7916 3.4754 4.81269 3.46645 4.83416C3.45 4.87349 3.43472 4.91333 3.41948 4.95327C3.41165 4.9738 3.4034 4.99414 3.3959 5.01482C3.38067 5.05682 3.3667 5.09942 3.35283 5.14208C3.34659 5.1613 3.33984 5.18028 3.33389 5.19964C3.31983 5.2453 3.30712 5.29156 3.29461 5.33792C3.29006 5.35475 3.285 5.3713 3.28069 5.38817C3.26761 5.43945 3.25598 5.4913 3.24487 5.54333C3.24225 5.5557 3.23906 5.56789 3.23653 5.58031C3.22411 5.64129 3.21323 5.70279 3.20358 5.76471C3.20302 5.76842 3.20222 5.77207 3.20166 5.77582C3.18131 5.90904 3.16725 6.04432 3.16027 6.18147C1.5745 7.20142 0.5 9.0831 0.5 10.9997C0.5 13.3987 2.02994 16.0213 4.10319 16.9175L4.29308 16.9996H5.49996C6.05223 16.9996 6.49993 16.5519 6.49993 15.9996C6.49993 15.4473 6.05223 14.9996 5.49996 14.9996H4.72573C3.50245 14.3542 2.50004 12.5666 2.50004 10.9997C2.50004 9.63828 3.38845 8.24494 4.58712 7.67054L5.15501 7.39843V6.76872C5.15501 6.75236 5.15595 6.72859 5.15824 6.68852C5.1612 6.63869 5.1612 6.63869 5.16232 6.61956L5.16265 6.51002C5.16012 6.46619 5.16012 6.46619 5.15787 6.43432C5.15557 5.50756 5.7287 4.74313 6.52651 4.46634C6.73435 4.39471 6.95714 4.35525 7.18927 4.35525C7.50351 4.35525 7.80107 4.42654 8.06676 4.55362C8.07257 4.55643 8.07833 4.55938 8.08415 4.56224C8.10402 4.57199 8.12371 4.58212 8.14321 4.59248C8.15343 4.59792 8.1636 4.6034 8.17372 4.60898C8.18844 4.61713 8.20297 4.62562 8.2175 4.6341C8.24464 4.65009 8.2715 4.66663 8.29799 4.68388C8.30361 4.68754 8.30933 4.69101 8.31491 4.69471L8.33375 4.70727C8.87126 5.07336 9.22427 5.69 9.22427 6.38918C9.22427 6.94145 9.67197 7.38915 10.2242 7.38915C10.7765 7.38915 11.2242 6.94145 11.2242 6.38918C11.2242 5.37603 10.8498 4.45096 10.233 3.7425C11.2229 2.67728 12.6427 1.99962 14.0489 1.99962C16.355 1.99962 18.7779 4.39593 19.3659 6.93747C19.0883 6.94239 18.8095 6.96128 18.5348 6.99892C18.4935 7.00468 18.4935 7.00468 18.4521 7.01082C17.9061 7.09356 17.5305 7.60332 17.6133 8.14936C17.696 8.6954 18.2057 9.07096 18.7518 8.98822C18.7789 8.98419 18.7789 8.98419 18.8062 8.9804C19.2239 8.92321 19.6903 8.92508 20.1273 8.96404C20.2201 8.97229 20.2894 8.98021 20.3308 8.98565C21.7 9.25138 22.4998 10.3591 22.4998 11.9995C22.4998 13.4591 21.6323 14.6544 20.3755 14.9995H19.4998C18.9475 14.9995 18.4998 15.4472 18.4998 15.9995C18.4998 16.5517 18.9475 16.9994 19.4998 16.9994H20.6151L20.7274 16.9732C22.9671 16.4498 24.4998 14.4063 24.4998 11.9995C24.4998 9.72603 23.3685 7.914 21.446 7.22312Z" />
<path d="M16.6715 19.7568C17.195 18.9663 17.5002 18.0187 17.5002 16.9997C17.5002 14.2385 15.2615 11.9998 12.5002 11.9998C9.73892 11.9998 7.50024 14.2384 7.50024 16.9997C7.50024 19.761 9.73892 21.9997 12.5002 21.9997C13.5192 21.9997 14.4669 21.6945 15.2573 21.171L17.7933 23.707C18.1838 24.0975 18.817 24.0975 19.2075 23.707C19.598 23.3165 19.598 22.6833 19.2075 22.2928L16.6715 19.7568ZM9.50024 16.9997C9.50024 15.343 10.8435 13.9997 12.5002 13.9997C14.1569 13.9997 15.5002 15.343 15.5002 16.9997C15.5002 17.8276 15.1647 18.5771 14.6224 19.1199C14.6221 19.1203 14.6217 19.1205 14.6214 19.1209C14.6211 19.1212 14.6208 19.1216 14.6205 19.1219C14.0777 19.6642 13.3281 19.9996 12.5002 19.9996C10.8435 19.9997 9.50024 18.6564 9.50024 16.9997Z" />
</svg>
