<svg width="24" height="24" viewBox="0 0 24 24"  xmlns="http://www.w3.org/2000/svg">
<path d="M20 16C18.3293 16 16.8986 17.0244 16.3001 18.4792L7.60444 13.7365C7.85789 13.2113 8.00002 12.6223 8.00002 12C8.00002 11.3779 7.85798 10.789 7.60462 10.2639L16.3001 5.52089C16.8987 6.97561 18.3293 8.00002 20 8.00002C22.2093 8.00002 24 6.2093 24 4.00003C24 1.79077 22.2093 0 20 0C18.0015 0 16.3459 1.46531 16.048 3.3802L6.27544 8.71078C5.62941 8.26303 4.84561 8.00002 4.00003 8.00002C1.79072 8.00002 0 9.79073 0 12C0 14.2093 1.79072 16 3.99998 16C4.84542 16 5.62903 15.7371 6.27502 15.2895L16.048 20.6198C16.3459 22.5346 18.0015 24 20 24C22.2093 24 24 22.2093 24 20C24 17.7908 22.2093 16 20 16ZM20 2.00002C21.1047 2.00002 22 2.89528 22 4.00003C22 5.10478 21.1047 6 20 6C18.8956 6 18.0006 5.1052 18 4.00092C18 3.99919 18.0001 3.9975 18.0001 3.99577C18.0024 2.89303 18.8967 2.00002 20 2.00002ZM2.00002 12C2.00002 10.8953 2.89528 9.99998 4.00003 9.99998C5.10478 9.99998 6 10.8953 6 12C6 12.5267 5.79614 13.0055 5.46342 13.3627C5.44992 13.3756 5.43741 13.3897 5.42461 13.4034C5.06189 13.7716 4.55775 14 3.99998 14C2.89528 14 2.00002 13.1047 2.00002 12ZM20 22C18.8967 22 18.0024 21.107 18.0001 20.0042C18.0001 20.0025 18 20.0008 18 19.999C18.0006 18.8948 18.8956 18 20 18C21.1047 18 22 18.8953 22 20C22 21.1048 21.1047 22 20 22Z" />
</svg>
