<svg width="25" height="24" viewBox="0 0 25 24"  xmlns="http://www.w3.org/2000/svg">
<path d="M23.5001 5.99997H1.49999C0.947705 5.99997 0.5 6.44767 0.5 6.99996V23C0.5 23.5523 0.947705 24 1.49999 24H23.5C24.0523 24 24.5 23.5523 24.5 23V6.99996C24.5001 6.44767 24.0524 5.99997 23.5001 5.99997ZM22.5001 22H2.50002V7.99999H22.5001V22H22.5001Z" />
<path d="M2.49999 4.99994H22.5001C23.0524 4.99994 23.5001 4.55224 23.5001 3.99996C23.5001 3.44767 23.0524 2.99997 22.5001 2.99997H2.49999C1.9477 2.99997 1.5 3.44767 1.5 3.99996C1.49995 4.55219 1.9477 4.99994 2.49999 4.99994Z" />
<path d="M4.49999 1.99999H20.5C21.0523 1.99999 21.5 1.55229 21.5 1C21.5001 0.447674 21.0524 -3.05176e-05 20.5001 -3.05176e-05H4.49999C3.9477 -3.05176e-05 3.5 0.447674 3.5 0.999957C3.5 1.55224 3.9477 1.99999 4.49999 1.99999Z" />
</svg>
